<svg xmlns="http://www.w3.org/2000/svg" width="1200" height="540" viewBox="0 0 1200 540"><rect width="1200" height="540" fill="#f8fafc"/><text x="600" y="45" text-anchor="middle" font-size="28" font-family="Arial" font-weight="700" fill="#0f172a">竞品矩阵：事实、来源和更新时间缺一不可</text><g font-family="Arial"><rect x="70" y="90" width="1060" height="365" rx="16" fill="#fff" stroke="#94a3b8" stroke-width="2"/><rect x="70" y="90" width="1060" height="62" rx="16" fill="#e2e8f0"/><g font-size="17" font-weight="700" fill="#0f172a" text-anchor="middle"><text x="155" y="128">维度</text><text x="335" y="128">竞品 A</text><text x="520" y="128">竞品 B</text><text x="705" y="128">竞品 C</text><text x="885" y="128">证据编号</text><text x="1040" y="128">核对日期</text></g><g stroke="#cbd5e1"><line x1="245" y1="90" x2="245" y2="455"/><line x1="430" y1="90" x2="430" y2="455"/><line x1="615" y1="90" x2="615" y2="455"/><line x1="800" y1="90" x2="800" y2="455"/><line x1="970" y1="90" x2="970" y2="455"/><line x1="70" y1="152" x2="1130" y2="152"/><line x1="70" y1="228" x2="1130" y2="228"/><line x1="70" y1="304" x2="1130" y2="304"/><line x1="70" y1="380" x2="1130" y2="380"/></g><g font-size="16" fill="#334155" text-anchor="middle"><text x="155" y="192">个人版价格</text><text x="335" y="185">$20/月</text><text x="520" y="185">¥99/月</text><text x="705" y="185">未确认</text><text x="885" y="185">A-03 / B-02</text><text x="1040" y="185">2026-07-17</text><text x="155" y="268">团队权限</text><text x="335" y="261">角色 + 审计</text><text x="520" y="261">基础共享</text><text x="705" y="261">帮助页未说明</text><text x="885" y="261">A-07 / B-05</text><text x="1040" y="261">2026-07-17</text><text x="155" y="344">免费额度</text><text x="335" y="337">100 次/月</text><text x="520" y="337">7 天试用</text><text x="705" y="337">无公开信息</text><text x="885" y="337">A-11 / B-09</text><text x="1040" y="337">2026-07-17</text><text x="155" y="420">用户抱怨</text><text x="335" y="413">速度</text><text x="520" y="413">导出格式</text><text x="705" y="413">样本不足</text><text x="885" y="413">U-01~U-24</text><text x="1040" y="413">样本日期</text></g></g><rect x="170" y="485" width="860" height="36" rx="10" fill="#fff7ed" stroke="#fb923c"/><text x="600" y="509" text-anchor="middle" font-size="17" font-family="Arial" fill="#9a3412" font-weight="700">未找到 ≠ 没有；价格、功能和政策必须记录最后核对日期</text></svg>