<svg xmlns="http://www.w3.org/2000/svg" width="1200" height="520" viewBox="0 0 1200 520"><rect width="1200" height="520" fill="#f8fafc"/><text x="600" y="45" text-anchor="middle" font-size="28" font-family="Arial" font-weight="700" fill="#0f172a">字段映射：按含义对齐，不按列位置拼接</text><g font-family="Arial"><g transform="translate(55 95)"><rect width="300" height="330" rx="18" fill="#fff" stroke="#60a5fa" stroke-width="2"/><text x="150" y="38" text-anchor="middle" font-size="22" font-weight="700" fill="#1d4ed8">文件 A：1 月销售</text><g font-size="17" fill="#334155"><text x="35" y="88">客户ID</text><text x="35" y="136">下单日期</text><text x="35" y="184">成交金额</text><text x="35" y="232">销售区域</text><text x="35" y="280">订单号</text></g></g><g transform="translate(845 95)"><rect width="300" height="330" rx="18" fill="#fff" stroke="#a78bfa" stroke-width="2"/><text x="150" y="38" text-anchor="middle" font-size="22" font-weight="700" fill="#6d28d9">文件 B：2 月销售</text><g font-size="17" fill="#334155"><text x="35" y="88">customer_id</text><text x="35" y="136">created_at</text><text x="35" y="184">amount</text><text x="35" y="232">地区</text><text x="35" y="280">order_no</text></g></g><g transform="translate(430 95)"><rect width="340" height="330" rx="18" fill="#ecfdf5" stroke="#16a34a" stroke-width="2"/><text x="170" y="38" text-anchor="middle" font-size="22" font-weight="700" fill="#166534">标准字段</text><g font-size="17" fill="#334155"><text x="45" y="88">customer_id</text><text x="45" y="136">order_date</text><text x="45" y="184">sales_amount</text><text x="45" y="232">region</text><text x="45" y="280">order_id</text></g><g font-size="15" fill="#64748b"><text x="205" y="88">文本，禁止科学计数</text><text x="205" y="136">YYYY-MM-DD</text><text x="205" y="184">数值 + 币种</text><text x="205" y="232">标准地区名称</text><text x="205" y="280">唯一主键</text></g></g></g><g stroke="#64748b" stroke-width="2.5" fill="none"><path d="M355 178 C390 178 390 178 430 178"/><path d="M355 226 C390 226 390 226 430 226"/><path d="M355 274 C390 274 390 274 430 274"/><path d="M355 322 C390 322 390 322 430 322"/><path d="M355 370 C390 370 390 370 430 370"/><path d="M845 178 C810 178 810 178 770 178"/><path d="M845 226 C810 226 810 226 770 226"/><path d="M845 274 C810 274 810 274 770 274"/><path d="M845 322 C810 322 810 322 770 322"/><path d="M845 370 C810 370 810 370 770 370"/></g><rect x="260" y="455" width="680" height="44" rx="12" fill="#fff7ed" stroke="#fb923c"/><text x="600" y="483" text-anchor="middle" font-size="17" font-family="Arial" fill="#9a3412" font-weight="700">每一行新增 source_file 和 source_sheet，保证结果可追溯</text></svg>