<svg xmlns="http://www.w3.org/2000/svg" width="1200" height="360" viewBox="0 0 1200 360" role="img" aria-labelledby="title desc">
  <title id="title">WorkBuddy 非官方中文使用手册</title>
  <desc id="desc">面向普通人的图文教程、工作流、提示词和故障排查</desc>
  <defs>
    <linearGradient id="bg" x1="0" y1="0" x2="1" y2="1">
      <stop offset="0" stop-color="#0f172a"/>
      <stop offset="0.52" stop-color="#1e3a8a"/>
      <stop offset="1" stop-color="#0f766e"/>
    </linearGradient>
    <linearGradient id="card" x1="0" y1="0" x2="1" y2="1">
      <stop offset="0" stop-color="#ffffff" stop-opacity="0.18"/>
      <stop offset="1" stop-color="#ffffff" stop-opacity="0.07"/>
    </linearGradient>
    <filter id="shadow" x="-20%" y="-20%" width="140%" height="140%">
      <feDropShadow dx="0" dy="10" stdDeviation="12" flood-color="#020617" flood-opacity="0.35"/>
    </filter>
  </defs>
  <rect width="1200" height="360" rx="28" fill="url(#bg)"/>
  <circle cx="1040" cy="70" r="130" fill="#38bdf8" opacity="0.12"/>
  <circle cx="1120" cy="310" r="180" fill="#34d399" opacity="0.10"/>
  <circle cx="80" cy="330" r="120" fill="#a78bfa" opacity="0.10"/>

  <g transform="translate(70 58)">
    <rect x="0" y="0" width="82" height="82" rx="22" fill="#ffffff" opacity="0.95" filter="url(#shadow)"/>
    <path d="M21 27h40v10H21zm0 18h26v10H21zm0 18h33v10H21z" fill="#1d4ed8"/>
    <circle cx="61" cy="60" r="12" fill="#14b8a6"/>
    <path d="M56 60l4 4 7-9" fill="none" stroke="#fff" stroke-width="3.5" stroke-linecap="round" stroke-linejoin="round"/>
  </g>

  <text x="178" y="108" fill="#ffffff" font-size="44" font-family="Arial, 'Microsoft YaHei', sans-serif" font-weight="700">WorkBuddy 非官方中文使用手册</text>
  <text x="70" y="172" fill="#dbeafe" font-size="24" font-family="Arial, 'Microsoft YaHei', sans-serif">让普通人也能照着完成：图文教程 · 可复制指令 · 真实工作流 · 安全排障</text>

  <g transform="translate(70 222)" font-family="Arial, 'Microsoft YaHei', sans-serif" font-size="18">
    <g>
      <rect width="174" height="52" rx="16" fill="url(#card)" stroke="#ffffff" stroke-opacity="0.18"/>
      <text x="87" y="33" text-anchor="middle" fill="#ffffff">📄 文档与文件</text>
    </g>
    <g transform="translate(194 0)">
      <rect width="174" height="52" rx="16" fill="url(#card)" stroke="#ffffff" stroke-opacity="0.18"/>
      <text x="87" y="33" text-anchor="middle" fill="#ffffff">📊 数据与报表</text>
    </g>
    <g transform="translate(388 0)">
      <rect width="174" height="52" rx="16" fill="url(#card)" stroke="#ffffff" stroke-opacity="0.18"/>
      <text x="87" y="33" text-anchor="middle" fill="#ffffff">🔎 调研与决策</text>
    </g>
    <g transform="translate(582 0)">
      <rect width="174" height="52" rx="16" fill="url(#card)" stroke="#ffffff" stroke-opacity="0.18"/>
      <text x="87" y="33" text-anchor="middle" fill="#ffffff">✍️ 内容与营销</text>
    </g>
    <g transform="translate(776 0)">
      <rect width="174" height="52" rx="16" fill="url(#card)" stroke="#ffffff" stroke-opacity="0.18"/>
      <text x="87" y="33" text-anchor="middle" fill="#ffffff">⚙️ 自动化与 Skills</text>
    </g>
  </g>

  <text x="70" y="324" fill="#bfdbfe" font-size="17" font-family="Arial, 'Microsoft YaHei', sans-serif">来源可追溯 · 未实测不冒充亲测 · 自动生成只进 PR · 社区共同维护</text>
</svg>
